<svg xmlns="http://www.w3.org/2000/svg" width="48" height="48" fill="none" viewBox="0 0 48 48"><mask id="mask0" width="36" height="20" x="6" y="24" mask-type="alpha" maskUnits="userSpaceOnUse"><path fill="#16CA83" d="M6 24H42L38 44H10L6 24Z"/></mask><g mask="url(#mask0)"><path fill="#16CA83" d="M6 24H42V44H6V24Z"/><g filter="url(#filter0_f)"><path fill="#0A5C3B" fill-opacity=".24" d="M6 24H42V34L24.5 27.75L6 34V24Z"/></g><g filter="url(#filter1_f)"><path fill="#0A5C3B" fill-opacity=".24" d="M6 48H42V38L24.5 44.25L6 38V48Z"/></g><g filter="url(#filter2_f)" opacity=".48"><circle cx="24" cy="36" r="8" fill="#0E8053"/></g><circle cx="24" cy="36" r="6" fill="#6CEFBA"/><path fill="url(#paint0_radial)" d="M24 33C24 33 22.1821 35.8269 22.0301 36.75C21.8781 37.6731 22.2669 39 24 39C25.7331 39 26.1219 37.6731 25.9699 36.75C25.8179 35.8269 24 33 24 33Z"/></g><mask id="mask1" width="48" height="28" x="0" y="0" mask-type="alpha" maskUnits="userSpaceOnUse"><path fill="#C4C4C4" fill-rule="evenodd" d="M42 0H6C2.68629 0 0 2.68629 0 6V22C0 25.3137 2.68629 28 6 28H42C45.3137 28 48 25.3137 48 22V6C48 2.68629 45.3137 0 42 0Z" clip-rule="evenodd"/></mask><g mask="url(#mask1)"><g filter="url(#filter3_i)"><path fill="#47EBA9" fill-rule="evenodd" d="M6 0H42C45.3137 0 48 2.68629 48 6V22C48 25.3137 45.3137 28 42 28H6C2.68629 28 0 25.3137 0 22V6C0 2.68629 2.68629 0 6 0ZM6 4C4.89543 4 4 4.89543 4 6V22C4 23.1046 4.89543 24 6 24H42C43.1046 24 44 23.1046 44 22V6C44 4.89543 43.1046 4 42 4H6Z" clip-rule="evenodd"/></g><g filter="url(#filter4_ii)"><path fill="#16CA83" d="M4 6C4 4.89543 4.89543 4 6 4H42C43.1046 4 44 4.89543 44 6V22C44 23.1046 43.1046 24 42 24H6C4.89543 24 4 23.1046 4 22V6Z"/></g><mask id="mask2" width="32" height="14" x="8" y="7" mask-type="alpha" maskUnits="userSpaceOnUse"><path fill="#6CEFBA" fill-rule="evenodd" d="M40 21C40 13.268 32.8366 7 24 7C15.1634 7 8 13.268 8 21H40Z" clip-rule="evenodd"/></mask><g mask="url(#mask2)"><g filter="url(#filter5_iii)"><path fill="url(#paint1_linear)" fill-rule="evenodd" d="M40 21C40 13.268 32.8366 7 24 7C15.1634 7 8 13.268 8 21H40Z" clip-rule="evenodd"/></g><g filter="url(#filter6_d)"><path fill="#C4C4C4" d="M34 17L24 18L24 17L24 16L34 17Z"/><path fill="url(#paint2_radial)" d="M34 17L24 18L24 17L24 16L34 17Z"/><circle cx="24" cy="17" r="2" fill="#C4C4C4"/><circle cx="24" cy="17" r="2" fill="url(#paint3_radial)"/><circle cx="24" cy="17" r="2" fill="url(#paint4_radial)"/></g></g></g><path fill="url(#paint5_linear)" d="M6 44H42V46H6V44Z"/><g filter="url(#filter7_i)"><path fill="#47EBA9" d="M4 46.6667C4 45.1939 5.19391 44 6.66667 44H41.3333C42.8061 44 44 45.1939 44 46.6667C44 47.403 43.403 48 42.6667 48H5.33333C4.59695 48 4 47.403 4 46.6667Z"/></g><defs><filter id="filter0_f" width="52" height="26" x="-2" y="16" color-interpolation-filters="sRGB" filterUnits="userSpaceOnUse"><feFlood flood-opacity="0" result="BackgroundImageFix"/><feBlend in="SourceGraphic" in2="BackgroundImageFix" mode="normal" result="shape"/><feGaussianBlur result="effect1_foregroundBlur" stdDeviation="4"/></filter><filter id="filter1_f" width="48" height="22" x="0" y="32" color-interpolation-filters="sRGB" filterUnits="userSpaceOnUse"><feFlood flood-opacity="0" result="BackgroundImageFix"/><feBlend in="SourceGraphic" in2="BackgroundImageFix" mode="normal" result="shape"/><feGaussianBlur result="effect1_foregroundBlur" stdDeviation="3"/></filter><filter id="filter2_f" width="28" height="28" x="10" y="22" color-interpolation-filters="sRGB" filterUnits="userSpaceOnUse"><feFlood flood-opacity="0" result="BackgroundImageFix"/><feBlend in="SourceGraphic" in2="BackgroundImageFix" mode="normal" result="shape"/><feGaussianBlur result="effect1_foregroundBlur" stdDeviation="3"/></filter><filter id="filter3_i" width="49" height="29" x="-1" y="-1" color-interpolation-filters="sRGB" filterUnits="userSpaceOnUse"><feFlood flood-opacity="0" result="BackgroundImageFix"/><feBlend in="SourceGraphic" in2="BackgroundImageFix" mode="normal" result="shape"/><feColorMatrix in="SourceAlpha" result="hardAlpha" type="matrix" values="0 0 0 0 0 0 0 0 0 0 0 0 0 0 0 0 0 0 127 0"/><feOffset dx="-1" dy="-1"/><feGaussianBlur stdDeviation="1"/><feComposite in2="hardAlpha" k2="-1" k3="1" operator="arithmetic"/><feColorMatrix type="matrix" values="0 0 0 0 0.088 0 0 0 0 0.792 0 0 0 0 0.513333 0 0 0 0.72 0"/><feBlend in2="shape" mode="normal" result="effect1_innerShadow"/></filter><filter id="filter4_ii" width="41" height="21" x="4" y="4" color-interpolation-filters="sRGB" filterUnits="userSpaceOnUse"><feFlood flood-opacity="0" result="BackgroundImageFix"/><feBlend in="SourceGraphic" in2="BackgroundImageFix" mode="normal" result="shape"/><feColorMatrix in="SourceAlpha" result="hardAlpha" type="matrix" values="0 0 0 0 0 0 0 0 0 0 0 0 0 0 0 0 0 0 127 0"/><feOffset/><feGaussianBlur stdDeviation="6"/><feComposite in2="hardAlpha" k2="-1" k3="1" operator="arithmetic"/><feColorMatrix type="matrix" values="0 0 0 0 0.064 0 0 0 0 0.576 0 0 0 0 0.371202 0 0 0 0.8 0"/><feBlend in2="shape" mode="normal" result="effect1_innerShadow"/><feColorMatrix in="SourceAlpha" result="hardAlpha" type="matrix" values="0 0 0 0 0 0 0 0 0 0 0 0 0 0 0 0 0 0 127 0"/><feOffset dx="1" dy="1"/><feGaussianBlur stdDeviation=".5"/><feComposite in2="hardAlpha" k2="-1" k3="1" operator="arithmetic"/><feColorMatrix type="matrix" values="0 0 0 0 0.054902 0 0 0 0 0.501961 0 0 0 0 0.32549 0 0 0 0.4 0"/><feBlend in2="effect1_innerShadow" mode="normal" result="effect2_innerShadow"/></filter><filter id="filter5_iii" width="32" height="15.5" x="8" y="6.5" color-interpolation-filters="sRGB" filterUnits="userSpaceOnUse"><feFlood flood-opacity="0" result="BackgroundImageFix"/><feBlend in="SourceGraphic" in2="BackgroundImageFix" mode="normal" result="shape"/><feColorMatrix in="SourceAlpha" result="hardAlpha" type="matrix" values="0 0 0 0 0 0 0 0 0 0 0 0 0 0 0 0 0 0 127 0"/><feOffset/><feGaussianBlur stdDeviation=".5"/><feComposite in2="hardAlpha" k2="-1" k3="1" operator="arithmetic"/><feColorMatrix type="matrix" values="0 0 0 0 0.04 0 0 0 0 0.36 0 0 0 0 0.231998 0 0 0 1 0"/><feBlend in2="shape" mode="normal" result="effect1_innerShadow"/><feColorMatrix in="SourceAlpha" result="hardAlpha" type="matrix" values="0 0 0 0 0 0 0 0 0 0 0 0 0 0 0 0 0 0 127 0"/><feOffset dy="-.5"/><feGaussianBlur stdDeviation=".5"/><feComposite in2="hardAlpha" k2="-1" k3="1" operator="arithmetic"/><feColorMatrix type="matrix" values="0 0 0 0 0.04 0 0 0 0 0.36 0 0 0 0 0.231998 0 0 0 0.4 0"/><feBlend in2="effect1_innerShadow" mode="normal" result="effect2_innerShadow"/><feColorMatrix in="SourceAlpha" result="hardAlpha" type="matrix" values="0 0 0 0 0 0 0 0 0 0 0 0 0 0 0 0 0 0 127 0"/><feOffset dy="1"/><feGaussianBlur stdDeviation="1"/><feComposite in2="hardAlpha" k2="-1" k3="1" operator="arithmetic"/><feColorMatrix type="matrix" values="0 0 0 0 0.054902 0 0 0 0 0.501961 0 0 0 0 0.32549 0 0 0 0.48 0"/><feBlend in2="effect2_innerShadow" mode="normal" result="effect3_innerShadow"/></filter><filter id="filter6_d" width="16" height="8" x="20" y="13" color-interpolation-filters="sRGB" filterUnits="userSpaceOnUse"><feFlood flood-opacity="0" result="BackgroundImageFix"/><feColorMatrix in="SourceAlpha" result="hardAlpha" type="matrix" values="0 0 0 0 0 0 0 0 0 0 0 0 0 0 0 0 0 0 127 0"/><feOffset/><feGaussianBlur stdDeviation="1"/><feComposite in2="hardAlpha" operator="out"/><feColorMatrix type="matrix" values="0 0 0 0 0.04 0 0 0 0 0.36 0 0 0 0 0.231998 0 0 0 0.4 0"/><feBlend in2="BackgroundImageFix" mode="normal" result="effect1_dropShadow"/><feBlend in="SourceGraphic" in2="effect1_dropShadow" mode="normal" result="shape"/></filter><filter id="filter7_i" width="41" height="5" x="3" y="43" color-interpolation-filters="sRGB" filterUnits="userSpaceOnUse"><feFlood flood-opacity="0" result="BackgroundImageFix"/><feBlend in="SourceGraphic" in2="BackgroundImageFix" mode="normal" result="shape"/><feColorMatrix in="SourceAlpha" result="hardAlpha" type="matrix" values="0 0 0 0 0 0 0 0 0 0 0 0 0 0 0 0 0 0 127 0"/><feOffset dx="-1" dy="-1"/><feGaussianBlur stdDeviation="1"/><feComposite in2="hardAlpha" k2="-1" k3="1" operator="arithmetic"/><feColorMatrix type="matrix" values="0 0 0 0 0.088 0 0 0 0 0.792 0 0 0 0 0.513333 0 0 0 0.72 0"/><feBlend in2="shape" mode="normal" result="effect1_innerShadow"/></filter><radialGradient id="paint0_radial" cx="0" cy="0" r="1" gradientTransform="translate(24 34) rotate(90) scale(5 4.07673)" gradientUnits="userSpaceOnUse"><stop stop-color="#14B877"/><stop offset="1" stop-color="#10935F"/></radialGradient><linearGradient id="paint1_linear" x1="24" x2="24" y1="7" y2="21" gradientUnits="userSpaceOnUse"><stop stop-color="#6CEFBA"/><stop offset="1" stop-color="#47EBA9"/></linearGradient><radialGradient id="paint2_radial" cx="0" cy="0" r="1" gradientTransform="translate(28.4444 17) rotate(-180) scale(3.33333 1.5)" gradientUnits="userSpaceOnUse"><stop stop-color="#12A56A"/><stop offset="1" stop-color="#10935F"/></radialGradient><radialGradient id="paint3_radial" cx="0" cy="0" r="1" gradientTransform="translate(24 17) rotate(90) scale(2)" gradientUnits="userSpaceOnUse"><stop stop-color="#16CA83"/><stop offset="1" stop-color="#13AE70"/></radialGradient><radialGradient id="paint4_radial" cx="0" cy="0" r="1" gradientTransform="translate(24 17) rotate(90) scale(2 3.45013)" gradientUnits="userSpaceOnUse"><stop stop-color="#16CA83"/><stop offset="1" stop-color="#10935C"/></radialGradient><linearGradient id="paint5_linear" x1="6" x2="42" y1="45" y2="45" gradientUnits="userSpaceOnUse"><stop stop-color="#119C65"/><stop offset=".359" stop-color="#15C17D"/><stop offset=".688" stop-color="#14B877"/><stop offset="1" stop-color="#119C65"/></linearGradient></defs></svg>