<svg xmlns="http://www.w3.org/2000/svg" width="16" height="16" fill="none" viewBox="0 0 16 16"><path fill="#47EBA9" d="M0 5.1363L7.99999 13.9998L16 5.1363L12 1H4L0 5.1363Z"/><path fill="url(#paint0_linear)" d="M4 5.13663L7.99999 14.0001L0 5.13663H4Z"/><path fill="url(#paint1_linear)" d="M12 5.13663L8 14.0001L16 5.13663H12Z"/><path fill="url(#paint2_linear)" d="M4 5.1363H0L4 1H6L4 5.1363Z"/><path fill="url(#paint3_linear)" d="M16 5.1363H12L10 1H12L16 5.1363Z"/><path fill="url(#paint4_linear)" d="M12 5.13663L8 14.0001L4 5.13663H12Z"/><path fill="url(#paint5_linear)" d="M6 1L4 5.1363H12L10 1H6Z"/><path fill="#fff" fill-opacity=".1" d="M6 1L4 5.1363L7.83333 2.47725L6 1Z"/><path fill="#000" fill-opacity=".05" d="M7.8335 2.47725L12.0002 5.1363L10.0002 1L7.8335 2.47725Z"/><defs><linearGradient id="paint0_linear" x1="2.167" x2="7.013" y1="5.137" y2="14.51" gradientUnits="userSpaceOnUse"><stop stop-color="#23E798"/><stop offset="1" stop-color="#16CA82"/></linearGradient><linearGradient id="paint1_linear" x1="14" x2="9.003" y1="5.137" y2="14.533" gradientUnits="userSpaceOnUse"><stop stop-color="#10935F"/><stop offset="1" stop-color="#0C6E47"/></linearGradient><linearGradient id="paint2_linear" x1="5" x2="1.863" y1="1" y2="5.505" gradientUnits="userSpaceOnUse"><stop stop-color="#6CEFBA"/><stop offset="1" stop-color="#47EBA9"/></linearGradient><linearGradient id="paint3_linear" x1="10.833" x2="13.813" y1="1" y2="5.482" gradientUnits="userSpaceOnUse"><stop stop-color="#16CA83"/><stop offset="1" stop-color="#12A56A"/></linearGradient><linearGradient id="paint4_linear" x1="8" x2="8" y1="5.137" y2="14" gradientUnits="userSpaceOnUse"><stop stop-color="#16CA83"/><stop offset="1" stop-color="#12A56A"/></linearGradient><linearGradient id="paint5_linear" x1="8" x2="8" y1="1" y2="5.136" gradientUnits="userSpaceOnUse"><stop stop-color="#47EBA9"/><stop offset="1" stop-color="#23E798"/></linearGradient></defs></svg>