<svg xmlns="http://www.w3.org/2000/svg" width="28" height="28" fill="none" viewBox="0 0 28 28"><path fill="#23E798" fill-rule="evenodd" d="M23 9H2V8H23V9Z" clip-rule="evenodd" opacity=".8"/><path fill="#F47B7B" fill-rule="evenodd" d="M23 18H2V17H23V18Z" clip-rule="evenodd" opacity=".8"/><path fill="#F47B7B" d="M7.88216 16L1.88208 13L7.882 10H10.1181L4.11815 13L10.1182 16H7.88216Z"/><path fill="#23E798" d="M16.1181 7L22.1437 3.98723L21.8015 5.01288L22.75 5.32939L23.633 2.68329L20.9884 1.80481L20.6732 2.75382L21.6953 3.09337L13.8821 7H16.1181Z"/><path fill="#23E798" d="M16.1183 19L22.1398 22.0108L21.8015 20.9966L21.7996 20.9909L22.7477 20.6732L23.6328 23.3141L23.6293 23.3153L23.633 23.3262L21.415 24.063L21.0547 24.1847L21.0541 24.1829L20.9884 24.2047L20.6732 23.2557L21.0977 23.1147L21.7029 22.9103L13.8822 19H16.1183Z"/></svg>