<svg xmlns="http://www.w3.org/2000/svg" width="48" height="48" fill="none" viewBox="0 0 48 48"><path fill="url(#paint0_linear)" d="M0 46.5455C0 38.5122 6.51222 32 14.5455 32H33.4545C41.4878 32 48 38.5122 48 46.5455C48 47.3488 47.3488 48 46.5455 48H1.45454C0.651221 48 0 47.3488 0 46.5455Z"/><path fill="url(#paint1_linear)" fill-rule="evenodd" d="M30 28H18V32L24 44L30 32V28Z" clip-rule="evenodd"/><path fill="#0E8053" d="M12 12C12 5.37258 14 0 24 0C33 0 36 5.37258 36 12V16C36 18.6405 35.5515 21.3018 34.1743 23.5547C31.3584 28.1615 27.1994 32 24 32C20.9242 32 17.257 28.4522 14.3627 24.0848C12.6475 21.4966 12 18.3835 12 15.2786V12Z"/><path fill="url(#paint2_linear)" d="M12 12C12 5.37258 14 0 24 0C33 0 36 5.37258 36 12V16C36 18.6405 35.5515 21.3018 34.1743 23.5547C31.3584 28.1615 27.1994 32 24 32C20.9242 32 17.257 28.4522 14.3627 24.0848C12.6475 21.4966 12 18.3835 12 15.2786V12Z"/><g filter="url(#filter0_iii)"><path fill="url(#paint3_linear)" d="M14.4851 14.0597C15.3754 10.4984 18.5753 8 22.2462 8H25.7538C29.4247 8 32.6246 10.4984 33.5149 14.0597L33.7598 15.039C33.9111 15.6446 33.7607 16.2836 33.2385 16.6255C32.1076 17.3661 29.5511 18.5 24.5 18.5C18.7379 18.5 15.9628 17.3512 14.7729 16.6111C14.2429 16.2814 14.0889 15.6446 14.2402 15.039L14.4851 14.0597Z"/></g><g filter="url(#filter1_d)"><rect width="4" height="4" x="22" y="11" fill="url(#paint4_radial)" rx="2" transform="rotate(90 22 11)"/></g><g filter="url(#filter2_d)"><rect width="4" height="4" x="30" y="11" fill="url(#paint5_radial)" rx="2" transform="rotate(90 30 11)"/></g><path fill="#16CA83" d="M30 48L38 32H30L22 48H30Z"/><path fill="url(#paint6_linear)" d="M30 48L38 32H30L22 48H30Z"/><path fill="#0E8053" d="M30 48H38L44.5528 34.8944C44.8343 34.3314 44.8343 33.6686 44.5528 33.1056L44.5 33C44.1936 32.3871 43.5672 32 42.882 32H38L30 48Z"/><path fill="url(#paint7_linear)" d="M30 48H38L44.5528 34.8944C44.8343 34.3314 44.8343 33.6686 44.5528 33.1056L44.5 33C44.1936 32.3871 43.5672 32 42.882 32H38L30 48Z"/><g opacity=".8"><path fill="#0E8053" d="M27 48L35 32H33L25 48H27Z"/><path fill="url(#paint8_linear)" d="M27 48L35 32H33L25 48H27Z"/><path fill="url(#paint9_linear)" d="M27 48L35 32H33L25 48H27Z"/></g><path fill="#47EBA9" d="M18 48L10 32H18L26 48H18Z"/><path fill="url(#paint10_linear)" d="M18 48L10 32H18L26 48H18Z"/><path fill="#0E8053" d="M18 48H10L3.44721 34.8944C3.16569 34.3314 3.16573 33.6685 3.44725 33.1055L3.5 33C3.80643 32.3871 4.43283 32 5.11803 32H10L18 48Z"/><path fill="url(#paint11_linear)" d="M18 48H10L3.44721 34.8944C3.16569 34.3314 3.16573 33.6685 3.44725 33.1055L3.5 33C3.80643 32.3871 4.43283 32 5.11803 32H10L18 48Z"/><path fill="#0E8053" d="M13 48L5 32H7L15 48H13Z"/><path fill="url(#paint12_linear)" d="M13 48L5 32H7L15 48H13Z"/><g opacity=".8"><path fill="#0E8053" d="M21 48L13 32H15L23 48H21Z"/><path fill="url(#paint13_linear)" d="M21 48L13 32H15L23 48H21Z"/></g><mask id="mask0" width="11" height="16" x="1" y="17" mask-type="alpha" maskUnits="userSpaceOnUse"><g opacity=".8"><path fill="#0E8053" fill-rule="evenodd" d="M1.89581 18.9198L7.99998 32.0002H12L5.04683 17.1006L1.89581 18.9198Z" clip-rule="evenodd"/><path fill="url(#paint14_linear)" fill-rule="evenodd" d="M1.89581 18.9198L7.99998 32.0002H12L5.04683 17.1006L1.89581 18.9198Z" clip-rule="evenodd"/><path fill="url(#paint15_linear)" fill-rule="evenodd" d="M1.89581 18.9198L7.99998 32.0002H12L5.04683 17.1006L1.89581 18.9198Z" clip-rule="evenodd"/></g></mask><g mask="url(#mask0)"><g opacity=".8"><path fill="#0E8053" fill-rule="evenodd" d="M1.89581 18.9198L7.99998 32.0002H12L5.04683 17.1006L1.89581 18.9198Z" clip-rule="evenodd"/><path fill="url(#paint16_linear)" fill-rule="evenodd" d="M1.89581 18.9198L7.99998 32.0002H12L5.04683 17.1006L1.89581 18.9198Z" clip-rule="evenodd"/><path fill="url(#paint17_linear)" fill-rule="evenodd" d="M1.89581 18.9198L7.99998 32.0002H12L5.04683 17.1006L1.89581 18.9198Z" clip-rule="evenodd"/></g><rect width="6" height="2" x="1" y="19" fill="#14B876" transform="rotate(-30 1 19)"/></g><path fill="#0E8053" d="M35 48L43 32H41L33 48H35Z"/><path fill="url(#paint18_linear)" d="M35 48L43 32H41L33 48H35Z"/><defs><filter id="filter0_iii" width="19.631" height="12" x="14.185" y="7.5" color-interpolation-filters="sRGB" filterUnits="userSpaceOnUse"><feFlood flood-opacity="0" result="BackgroundImageFix"/><feBlend in="SourceGraphic" in2="BackgroundImageFix" mode="normal" result="shape"/><feColorMatrix in="SourceAlpha" result="hardAlpha" type="matrix" values="0 0 0 0 0 0 0 0 0 0 0 0 0 0 0 0 0 0 127 0"/><feOffset/><feGaussianBlur stdDeviation=".5"/><feComposite in2="hardAlpha" k2="-1" k3="1" operator="arithmetic"/><feColorMatrix type="matrix" values="0 0 0 0 0.04 0 0 0 0 0.36 0 0 0 0 0.231998 0 0 0 0.8 0"/><feBlend in2="shape" mode="normal" result="effect1_innerShadow"/><feColorMatrix in="SourceAlpha" result="hardAlpha" type="matrix" values="0 0 0 0 0 0 0 0 0 0 0 0 0 0 0 0 0 0 127 0"/><feOffset dy="-.5"/><feGaussianBlur stdDeviation=".5"/><feComposite in2="hardAlpha" k2="-1" k3="1" operator="arithmetic"/><feColorMatrix type="matrix" values="0 0 0 0 0.04 0 0 0 0 0.36 0 0 0 0 0.231998 0 0 0 0.24 0"/><feBlend in2="effect1_innerShadow" mode="normal" result="effect2_innerShadow"/><feColorMatrix in="SourceAlpha" result="hardAlpha" type="matrix" values="0 0 0 0 0 0 0 0 0 0 0 0 0 0 0 0 0 0 127 0"/><feOffset dy="1"/><feGaussianBlur stdDeviation=".5"/><feComposite in2="hardAlpha" k2="-1" k3="1" operator="arithmetic"/><feColorMatrix type="matrix" values="0 0 0 0 0.054902 0 0 0 0 0.501961 0 0 0 0 0.32549 0 0 0 0.24 0"/><feBlend in2="effect2_innerShadow" mode="normal" result="effect3_innerShadow"/></filter><filter id="filter1_d" width="8" height="8" x="16" y="10" color-interpolation-filters="sRGB" filterUnits="userSpaceOnUse"><feFlood flood-opacity="0" result="BackgroundImageFix"/><feColorMatrix in="SourceAlpha" result="hardAlpha" type="matrix" values="0 0 0 0 0 0 0 0 0 0 0 0 0 0 0 0 0 0 127 0"/><feOffset dy="1"/><feGaussianBlur stdDeviation="1"/><feComposite in2="hardAlpha" operator="out"/><feColorMatrix type="matrix" values="0 0 0 0 0.072 0 0 0 0 0.648 0 0 0 0 0.417602 0 0 0 0.32 0"/><feBlend in2="BackgroundImageFix" mode="normal" result="effect1_dropShadow"/><feBlend in="SourceGraphic" in2="effect1_dropShadow" mode="normal" result="shape"/></filter><filter id="filter2_d" width="8" height="8" x="24" y="10" color-interpolation-filters="sRGB" filterUnits="userSpaceOnUse"><feFlood flood-opacity="0" result="BackgroundImageFix"/><feColorMatrix in="SourceAlpha" result="hardAlpha" type="matrix" values="0 0 0 0 0 0 0 0 0 0 0 0 0 0 0 0 0 0 127 0"/><feOffset dy="1"/><feGaussianBlur stdDeviation="1"/><feComposite in2="hardAlpha" operator="out"/><feColorMatrix type="matrix" values="0 0 0 0 0.072 0 0 0 0 0.648 0 0 0 0 0.417602 0 0 0 0.32 0"/><feBlend in2="BackgroundImageFix" mode="normal" result="effect1_dropShadow"/><feBlend in="SourceGraphic" in2="effect1_dropShadow" mode="normal" result="shape"/></filter><linearGradient id="paint0_linear" x1="-.5" x2="48" y1="43.5" y2="43" gradientUnits="userSpaceOnUse"><stop stop-color="#10935F"/><stop offset=".302" stop-color="#0E8053"/><stop offset=".682" stop-color="#0E8053"/><stop offset="1" stop-color="#12A56A"/></linearGradient><linearGradient id="paint1_linear" x1="24" x2="24" y1="22" y2="44" gradientUnits="userSpaceOnUse"><stop offset=".333" stop-color="#12A56A"/><stop offset=".5" stop-color="#47EBA9"/><stop offset="1" stop-color="#6CEFBA"/></linearGradient><linearGradient id="paint2_linear" x1="24" x2="24" y1="0" y2="32" gradientUnits="userSpaceOnUse"><stop stop-color="#14B877"/><stop offset="1" stop-color="#10935F"/></linearGradient><linearGradient id="paint3_linear" x1="24" x2="24" y1="8" y2="16" gradientUnits="userSpaceOnUse"><stop stop-color="#6CEFBA"/><stop offset="1" stop-color="#47EBA9"/></linearGradient><radialGradient id="paint4_radial" cx="0" cy="0" r="1" gradientTransform="translate(24 13) rotate(90) scale(2)" gradientUnits="userSpaceOnUse"><stop stop-color="#0E8053"/><stop offset="1" stop-color="#12A56A"/></radialGradient><radialGradient id="paint5_radial" cx="0" cy="0" r="1" gradientTransform="translate(32 13) rotate(90) scale(2)" gradientUnits="userSpaceOnUse"><stop stop-color="#0E8053"/><stop offset="1" stop-color="#12A56A"/></radialGradient><linearGradient id="paint6_linear" x1="34.5" x2="27.397" y1="32" y2="48.598" gradientUnits="userSpaceOnUse"><stop stop-color="#14B876"/><stop offset=".5" stop-color="#18DC8F"/><stop offset="1" stop-color="#14B877"/></linearGradient><linearGradient id="paint7_linear" x1="42.5" x2="32.679" y1="32" y2="47.143" gradientUnits="userSpaceOnUse"><stop stop-color="#10935F"/><stop offset="1" stop-color="#16CA83"/></linearGradient><linearGradient id="paint8_linear" x1="34.5" x2="24.679" y1="32" y2="47.143" gradientUnits="userSpaceOnUse"><stop stop-color="#12A56B"/><stop offset="1" stop-color="#18DC8E"/></linearGradient><linearGradient id="paint9_linear" x1="34.5" x2="22.401" y1="32" y2="44.524" gradientUnits="userSpaceOnUse"><stop stop-color="#12A56A"/><stop offset=".5" stop-color="#17D389"/><stop offset="1" stop-color="#12A56B"/></linearGradient><linearGradient id="paint10_linear" x1="14" x2="21.103" y1="32" y2="48.598" gradientUnits="userSpaceOnUse"><stop stop-color="#14B876"/><stop offset="1" stop-color="#18DC8F"/></linearGradient><linearGradient id="paint11_linear" x1="5.5" x2="15.321" y1="32" y2="47.143" gradientUnits="userSpaceOnUse"><stop stop-color="#10935F"/><stop offset="1" stop-color="#16CA83"/></linearGradient><linearGradient id="paint12_linear" x1="5.5" x2="15.321" y1="32" y2="47.143" gradientUnits="userSpaceOnUse"><stop stop-color="#10935F"/><stop offset="1" stop-color="#14B876"/></linearGradient><linearGradient id="paint13_linear" x1="13.5" x2="23.321" y1="32" y2="47.143" gradientUnits="userSpaceOnUse"><stop stop-color="#12A56B"/><stop offset="1" stop-color="#18DC8E"/></linearGradient><linearGradient id="paint14_linear" x1="0" x2="9.821" y1="16" y2="31.143" gradientUnits="userSpaceOnUse"><stop stop-color="#12A56B"/><stop offset="1" stop-color="#18DC8E"/></linearGradient><linearGradient id="paint15_linear" x1="3.5" x2="10.5" y1="18" y2="32" gradientUnits="userSpaceOnUse"><stop stop-color="#18DC8F"/><stop offset="1" stop-color="#14B877"/></linearGradient><linearGradient id="paint16_linear" x1="0" x2="9.821" y1="16" y2="31.143" gradientUnits="userSpaceOnUse"><stop stop-color="#12A56B"/><stop offset="1" stop-color="#18DC8E"/></linearGradient><linearGradient id="paint17_linear" x1="3.5" x2="10.5" y1="18" y2="32" gradientUnits="userSpaceOnUse"><stop stop-color="#18DC8F"/><stop offset="1" stop-color="#16CA83"/></linearGradient><linearGradient id="paint18_linear" x1="42.5" x2="32.679" y1="32" y2="47.143" gradientUnits="userSpaceOnUse"><stop stop-color="#10935F"/><stop offset="1" stop-color="#14B876"/></linearGradient></defs></svg>