<svg xmlns="http://www.w3.org/2000/svg" width="48" height="48" fill="none" viewBox="0 0 48 48"><path fill="url(#paint0_radial)" stroke="#57ECB1" d="M2.32009 6.05078L4.18103 4.5H43.819L45.6799 6.05078L47.5 7.56752V40.4325L45.6799 41.9492L43.819 43.5H4.18102L2.32009 41.9492L0.5 40.4325V7.56752L2.32009 6.05078Z"/><path fill="#815AED" d="M13 4H12L4 12V13L13 4Z"/><path fill="#815AED" d="M13 44H12L4 36V35L13 44Z"/><rect width="1" height="24" x="4" y="12" fill="#815AED"/><rect width="23" height="3" x="13" y="12" fill="#12A56A"/><rect width="27" height="2" x="13" y="18" fill="#12A56A"/><rect width="27" height="2" x="13" y="22" fill="#12A56A"/><rect width="27" height="2" x="13" y="26" fill="#12A56A"/><rect width="27" height="2" x="13" y="30" fill="#12A56A"/><rect width="27" height="2" x="13" y="34" fill="#12A56A"/><path fill="url(#paint1_linear)" d="M4 0H20L24 4H12L4 12V36L12 44H24L20 48H4L0 44V4L4 0Z"/><path fill="#815AED" d="M4 40V44H8L4 40Z"/><path fill="#815AED" d="M4 8V4H8L4 8Z"/><path fill="#815AED" d="M21 0L25 4H24L20 0H21Z"/><path fill="#815AED" d="M24 44L20 48H21L25 44H24Z"/><defs><radialGradient id="paint0_radial" cx="0" cy="0" r="1" gradientTransform="translate(46 5.66666) rotate(139.876) scale(57.5428 56.715)" gradientUnits="userSpaceOnUse"><stop offset=".359" stop-color="#91F3CC"/><stop offset="1" stop-color="#23E698"/></radialGradient><linearGradient id="paint1_linear" x1="12" x2="12" y1="0" y2="48" gradientUnits="userSpaceOnUse"><stop stop-color="#B9A3F5"/><stop offset="1" stop-color="#9D7FF1"/></linearGradient></defs></svg>