<svg xmlns="http://www.w3.org/2000/svg" width="22" height="24" fill="none" viewBox="0 0 22 24"><path fill="#8C8C8C" d="M6.99788 2L0 11.676L6.99788 15.123V9.02536V2Z"/><path fill="#8C8C8C" d="M6.99788 21V16.2276L0 12.7823L6.99788 21Z"/><path fill="#2F2D2D" d="M0 11.6758L6.99788 15.1228V9.02515L0 11.6758Z"/><path fill="#343434" d="M6.84521 2.43298L6.99818 2L11.2554 7.8866C10.4742 8.76877 10 9.92898 10 11.2C10 11.9874 10.182 12.7323 10.5063 13.395L6.99818 15.123L6.84521 14.9959V2.43298Z"/><path fill="#343434" d="M11.0321 14.2427L6.99807 16.2276L6.91187 16.3152V20.7903L6.99807 21L11.9634 15.1726C11.6137 14.9048 11.3004 14.592 11.0321 14.2427Z"/><path fill="#141414" d="M10.1 10.2001L6.99817 9.02515V15.1228L10.5062 13.3948C10.182 12.7322 10 11.9873 10 11.2C10 10.8575 10.0344 10.5232 10.1 10.2001Z"/><circle cx="15" cy="11" r="4" fill="#0E8053"/><path fill="#C8F9E5" d="M14.8178 9.29405C14.9045 9.16859 15.0955 9.16859 15.1822 9.29405L16.9629 11.8714C17.0599 12.0119 16.9555 12.2 16.7806 12.2H13.2194C13.0445 12.2 12.9401 12.0119 13.0371 11.8714L14.8178 9.29405Z"/></svg>