<svg xmlns="http://www.w3.org/2000/svg" width="48" height="48" fill="none" viewBox="0 0 48 48"><g clip-path="url(#clip0)"><rect width="8" height="36.627" x="42.284" fill="#12A56B" transform="rotate(90 42.2842 0)"/><rect width="3" height="36" x="42" y="2" fill="#14B877" transform="rotate(90 42 2)"/><path fill="url(#paint0_linear)" d="M1.41421 7.07095C0.633165 6.2899 0.633165 5.02357 1.41421 4.24252L5.65685 -0.000115871L33.9411 28.2842L28.2843 33.941L1.41421 7.07095Z"/><path fill="url(#paint1_linear)" d="M2.00049 3.65625L3.87915 1.77759L32.1634 30.0619L30.2848 31.9405L2.00049 3.65625Z"/><path fill="url(#paint2_linear)" d="M2.00049 3.65625L3.87915 1.77759L32.1634 30.0619L30.2848 31.9405L2.00049 3.65625Z"/><path fill="#16CA83" d="M42.2842 0L46.5269 4.24264C47.3079 5.02369 47.3079 6.29002 46.5269 7.07107L19.6568 33.9411L14 28.2843L42.2842 0Z"/><path fill="url(#paint3_linear)" d="M42.2842 0L46.5269 4.24264C47.3079 5.02369 47.3079 6.29002 46.5269 7.07107L19.6568 33.9411L14 28.2843L42.2842 0Z"/><path fill="#16CA83" d="M43.9888 1.70459L45.8697 3.58549L17.5855 31.8698L15.7046 29.9889L43.9888 1.70459Z"/><path fill="url(#paint4_linear)" d="M43.9888 1.70459L45.8697 3.58549L17.5855 31.8698L15.7046 29.9889L43.9888 1.70459Z"/><path fill="url(#paint5_linear)" d="M43.9888 1.70459L45.8697 3.58549L17.5855 31.8698L15.7046 29.9889L43.9888 1.70459Z"/><mask id="mask0" width="48" height="34" x="0" y="0" mask-type="alpha" maskUnits="userSpaceOnUse"><path fill="#16CA83" fill-rule="evenodd" d="M1.41422 4.24264C0.633168 5.02369 0.633168 6.29002 1.41422 7.07107L18.3138 23.9706L14 28.2844L19.6568 33.9412L23.9706 29.6275L28.2843 33.9411L33.9411 28.2843L29.6275 23.9706L46.5269 7.07118C47.3079 6.29013 47.3079 5.02381 46.5269 4.24276L42.2842 0.000115871L23.9706 18.3138L5.65686 0L1.41422 4.24264Z" clip-rule="evenodd"/><path fill="url(#paint6_linear)" fill-rule="evenodd" d="M1.41422 4.24264C0.633168 5.02369 0.633168 6.29002 1.41422 7.07107L18.3138 23.9706L14 28.2844L19.6568 33.9412L23.9706 29.6275L28.2843 33.9411L33.9411 28.2843L29.6275 23.9706L46.5269 7.07118C47.3079 6.29013 47.3079 5.02381 46.5269 4.24276L42.2842 0.000115871L23.9706 18.3138L5.65686 0L1.41422 4.24264Z" clip-rule="evenodd"/></mask><g mask="url(#mask0)"><g filter="url(#filter0_f)" opacity=".4"><circle cx="24" cy="30" r="20" fill="#0E8053"/></g></g><circle cx="24" cy="30" r="18" fill="url(#paint7_radial)"/><g filter="url(#filter1_iii)"><path fill="#47EBA9" fill-rule="evenodd" d="M24 46C32.8366 46 40 38.8366 40 30C40 21.1634 32.8366 14 24 14C15.1634 14 8 21.1634 8 30C8 38.8366 15.1634 46 24 46ZM36.2828 30C36.2828 36.7836 30.7836 42.2828 24 42.2828C17.2164 42.2828 11.7172 36.7836 11.7172 30C11.7172 23.2164 17.2164 17.7172 24 17.7172C30.7836 17.7172 36.2828 23.2164 36.2828 30Z" clip-rule="evenodd"/></g><g filter="url(#filter2_f)"><path fill="#12A56A" d="M23.3958 37V26.0453L20.7812 27.0774L20 24.962L24.6979 23H26V37H23.3958Z"/></g><path fill="#12A56A" d="M23.3958 37V26.0453L20.7812 27.0774L20 24.962L24.6979 23H26V37H23.3958Z"/></g><defs><filter id="filter0_f" width="46" height="46" x="1" y="7" color-interpolation-filters="sRGB" filterUnits="userSpaceOnUse"><feFlood flood-opacity="0" result="BackgroundImageFix"/><feBlend in="SourceGraphic" in2="BackgroundImageFix" mode="normal" result="shape"/><feGaussianBlur result="effect1_foregroundBlur" stdDeviation="1.5"/></filter><filter id="filter1_iii" width="32" height="33.5" x="8" y="13.5" color-interpolation-filters="sRGB" filterUnits="userSpaceOnUse"><feFlood flood-opacity="0" result="BackgroundImageFix"/><feBlend in="SourceGraphic" in2="BackgroundImageFix" mode="normal" result="shape"/><feColorMatrix in="SourceAlpha" result="hardAlpha" type="matrix" values="0 0 0 0 0 0 0 0 0 0 0 0 0 0 0 0 0 0 127 0"/><feOffset/><feGaussianBlur stdDeviation=".5"/><feComposite in2="hardAlpha" k2="-1" k3="1" operator="arithmetic"/><feColorMatrix type="matrix" values="0 0 0 0 0.04 0 0 0 0 0.36 0 0 0 0 0.231998 0 0 0 0.4 0"/><feBlend in2="shape" mode="normal" result="effect1_innerShadow"/><feColorMatrix in="SourceAlpha" result="hardAlpha" type="matrix" values="0 0 0 0 0 0 0 0 0 0 0 0 0 0 0 0 0 0 127 0"/><feOffset dy="-.5"/><feGaussianBlur stdDeviation=".5"/><feComposite in2="hardAlpha" k2="-1" k3="1" operator="arithmetic"/><feColorMatrix type="matrix" values="0 0 0 0 0.04 0 0 0 0 0.36 0 0 0 0 0.231998 0 0 0 0.32 0"/><feBlend in2="effect1_innerShadow" mode="normal" result="effect2_innerShadow"/><feColorMatrix in="SourceAlpha" result="hardAlpha" type="matrix" values="0 0 0 0 0 0 0 0 0 0 0 0 0 0 0 0 0 0 127 0"/><feOffset dy="1"/><feGaussianBlur stdDeviation="1"/><feComposite in2="hardAlpha" k2="-1" k3="1" operator="arithmetic"/><feColorMatrix type="matrix" values="0 0 0 0 0.054902 0 0 0 0 0.501961 0 0 0 0 0.32549 0 0 0 0.32 0"/><feBlend in2="effect2_innerShadow" mode="normal" result="effect3_innerShadow"/></filter><filter id="filter2_f" width="8" height="16" x="19" y="22" color-interpolation-filters="sRGB" filterUnits="userSpaceOnUse"><feFlood flood-opacity="0" result="BackgroundImageFix"/><feBlend in="SourceGraphic" in2="BackgroundImageFix" mode="normal" result="shape"/><feGaussianBlur result="effect1_foregroundBlur" stdDeviation=".5"/></filter><linearGradient id="paint0_linear" x1="2.5" x2="16" y1="2.941" y2="16.941" gradientUnits="userSpaceOnUse"><stop stop-color="#14B876"/><stop offset="1" stop-color="#18DC8F"/></linearGradient><linearGradient id="paint1_linear" x1="2.759" x2="15.721" y1="2.682" y2="17.146" gradientUnits="userSpaceOnUse"><stop stop-color="#12A56A"/><stop offset="1" stop-color="#18DC8F"/></linearGradient><linearGradient id="paint2_linear" x1="2.759" x2="15.721" y1="2.682" y2="17.146" gradientUnits="userSpaceOnUse"><stop stop-color="#10935F"/><stop offset="1" stop-color="#16CA83"/></linearGradient><linearGradient id="paint3_linear" x1="45" x2="31" y1="2.5" y2="17" gradientUnits="userSpaceOnUse"><stop stop-color="#14B876"/><stop offset="1" stop-color="#18DC8F"/></linearGradient><linearGradient id="paint4_linear" x1="44.964" x2="30.5" y1="2.464" y2="15.428" gradientUnits="userSpaceOnUse"><stop stop-color="#12A56A"/><stop offset="1" stop-color="#18DC8F"/></linearGradient><linearGradient id="paint5_linear" x1="44.964" x2="30.5" y1="2.464" y2="15.428" gradientUnits="userSpaceOnUse"><stop stop-color="#10935F"/><stop offset="1" stop-color="#16CA83"/></linearGradient><linearGradient id="paint6_linear" x1="45" x2="31" y1="2.5" y2="16" gradientUnits="userSpaceOnUse"><stop stop-color="#12A56A"/><stop offset="1" stop-color="#18DC8F"/></linearGradient><radialGradient id="paint7_radial" cx="0" cy="0" r="1" gradientTransform="translate(24 30) rotate(90) scale(18 11.7361)" gradientUnits="userSpaceOnUse"><stop stop-color="#47EBA9"/><stop offset="1" stop-color="#16CA82"/></radialGradient><clipPath id="clip0"><rect width="48" height="48" fill="#fff"/></clipPath></defs></svg>